  0
SECTION
  2
HEADER
  9
$ACADVER
  1
AC1032
  9
$ACADMAINTVER
 90
4
  9
$DWGCODEPAGE
  3
ANSI_1252
  9
$LASTSAVEDBY
  1
ezdxf
  9
$REQUIREDVERSIONS
160
0
  9
$INSBASE
 10
0.0
 20
0.0
 30
0.0
  9
$EXTMIN
 10
1e+20
 20
1e+20
 30
1e+20
  9
$EXTMAX
 10
-1e+20
 20
-1e+20
 30
-1e+20
  9
$LIMMIN
 10
0.0
 20
0.0
  9
$LIMMAX
 10
420.0
 20
297.0
  9
$ORTHOMODE
 70
0
  9
$REGENMODE
 70
1
  9
$FILLMODE
 70
1
  9
$QTEXTMODE
 70
0
  9
$MIRRTEXT
 70
1
  9
$LTSCALE
 40
1.0
  9
$ATTMODE
 70
1
  9
$TEXTSIZE
 40
2.5
  9
$TRACEWID
 40
1.0
  9
$TEXTSTYLE
  7
Standard
  9
$CLAYER
  8
0
  9
$CELTYPE
  6
ByLayer
  9
$CECOLOR
 62
256
  9
$CELTSCALE
 40
1.0
  9
$DISPSILH
 70
0
  9
$DIMSCALE
 40
1.0
  9
$DIMASZ
 40
2.5
  9
$DIMEXO
 40
0.625
  9
$DIMDLI
 40
3.75
  9
$DIMRND
 40
0.0
  9
$DIMDLE
 40
0.0
  9
$DIMEXE
 40
1.25
  9
$DIMTP
 40
0.0
  9
$DIMTM
 40
0.0
  9
$DIMTXT
 40
2.5
  9
$DIMCEN
 40
2.5
  9
$DIMTSZ
 40
0.0
  9
$DIMTOL
 70
0
  9
$DIMLIM
 70
0
  9
$DIMTIH
 70
0
  9
$DIMTOH
 70
0
  9
$DIMSE1
 70
0
  9
$DIMSE2
 70
0
  9
$DIMTAD
 70
1
  9
$DIMZIN
 70
8
  9
$DIMBLK
  1

  9
$DIMASO
 70
1
  9
$DIMSHO
 70
1
  9
$DIMPOST
  1

  9
$DIMAPOST
  1

  9
$DIMALT
 70
0
  9
$DIMALTD
 70
3
  9
$DIMALTF
 40
0.03937007874
  9
$DIMLFAC
 40
1.0
  9
$DIMTOFL
 70
1
  9
$DIMTVP
 40
0.0
  9
$DIMTIX
 70
0
  9
$DIMSOXD
 70
0
  9
$DIMSAH
 70
0
  9
$DIMBLK1
  1

  9
$DIMBLK2
  1

  9
$DIMSTYLE
  2
ISO-25
  9
$DIMCLRD
 70
0
  9
$DIMCLRE
 70
0
  9
$DIMCLRT
 70
0
  9
$DIMTFAC
 40
1.0
  9
$DIMGAP
 40
0.625
  9
$DIMJUST
 70
0
  9
$DIMSD1
 70
0
  9
$DIMSD2
 70
0
  9
$DIMTOLJ
 70
0
  9
$DIMTZIN
 70
8
  9
$DIMALTZ
 70
0
  9
$DIMALTTZ
 70
0
  9
$DIMUPT
 70
0
  9
$DIMDEC
 70
2
  9
$DIMTDEC
 70
2
  9
$DIMALTU
 70
2
  9
$DIMALTTD
 70
3
  9
$DIMTXSTY
  7
Standard
  9
$DIMAUNIT
 70
0
  9
$DIMADEC
 70
0
  9
$DIMALTRND
 40
0.0
  9
$DIMAZIN
 70
0
  9
$DIMDSEP
 70
44
  9
$DIMATFIT
 70
3
  9
$DIMFRAC
 70
0
  9
$DIMLDRBLK
  1

  9
$DIMLUNIT
 70
2
  9
$DIMLWD
 70
-2
  9
$DIMLWE
 70
-2
  9
$DIMTMOVE
 70
0
  9
$DIMFXL
 40
1.0
  9
$DIMFXLON
 70
0
  9
$DIMJOGANG
 40
0.785398163397
  9
$DIMTFILL
 70
0
  9
$DIMTFILLCLR
 70
0
  9
$DIMARCSYM
 70
0
  9
$DIMLTYPE
  6

  9
$DIMLTEX1
  6

  9
$DIMLTEX2
  6

  9
$DIMTXTDIRECTION
 70
0
  9
$LUNITS
 70
2
  9
$LUPREC
 70
4
  9
$SKETCHINC
 40
1.0
  9
$FILLETRAD
 40
10.0
  9
$AUNITS
 70
0
  9
$AUPREC
 70
2
  9
$MENU
  1
.
  9
$ELEVATION
 40
0.0
  9
$PELEVATION
 40
0.0
  9
$THICKNESS
 40
0.0
  9
$LIMCHECK
 70
0
  9
$CHAMFERA
 40
0.0
  9
$CHAMFERB
 40
0.0
  9
$CHAMFERC
 40
0.0
  9
$CHAMFERD
 40
0.0
  9
$SKPOLY
 70
0
  9
$TDCREATE
 40
2461170.401076389
  9
$TDUCREATE
 40
2458532.153996898
  9
$TDUPDATE
 40
2461170.401076389
  9
$TDUUPDATE
 40
2458532.1544311
  9
$TDINDWG
 40
0.0
  9
$TDUSRTIMER
 40
0.0
  9
$USRTIMER
 70
1
  9
$ANGBASE
 50
0.0
  9
$ANGDIR
 70
0
  9
$PDMODE
 70
0
  9
$PDSIZE
 40
0.0
  9
$PLINEWID
 40
0.0
  9
$SPLFRAME
 70
0
  9
$SPLINETYPE
 70
6
  9
$SPLINESEGS
 70
8
  9
$HANDSEED
  5
A3
  9
$SURFTAB1
 70
6
  9
$SURFTAB2
 70
6
  9
$SURFTYPE
 70
6
  9
$SURFU
 70
6
  9
$SURFV
 70
6
  9
$UCSBASE
  2

  9
$UCSNAME
  2

  9
$UCSORG
 10
0.0
 20
0.0
 30
0.0
  9
$UCSXDIR
 10
1.0
 20
0.0
 30
0.0
  9
$UCSYDIR
 10
0.0
 20
1.0
 30
0.0
  9
$UCSORTHOREF
  2

  9
$UCSORTHOVIEW
 70
0
  9
$UCSORGTOP
 10
0.0
 20
0.0
 30
0.0
  9
$UCSORGBOTTOM
 10
0.0
 20
0.0
 30
0.0
  9
$UCSORGLEFT
 10
0.0
 20
0.0
 30
0.0
  9
$UCSORGRIGHT
 10
0.0
 20
0.0
 30
0.0
  9
$UCSORGFRONT
 10
0.0
 20
0.0
 30
0.0
  9
$UCSORGBACK
 10
0.0
 20
0.0
 30
0.0
  9
$PUCSBASE
  2

  9
$PUCSNAME
  2

  9
$PUCSORG
 10
0.0
 20
0.0
 30
0.0
  9
$PUCSXDIR
 10
1.0
 20
0.0
 30
0.0
  9
$PUCSYDIR
 10
0.0
 20
1.0
 30
0.0
  9
$PUCSORTHOREF
  2

  9
$PUCSORTHOVIEW
 70
0
  9
$PUCSORGTOP
 10
0.0
 20
0.0
 30
0.0
  9
$PUCSORGBOTTOM
 10
0.0
 20
0.0
 30
0.0
  9
$PUCSORGLEFT
 10
0.0
 20
0.0
 30
0.0
  9
$PUCSORGRIGHT
 10
0.0
 20
0.0
 30
0.0
  9
$PUCSORGFRONT
 10
0.0
 20
0.0
 30
0.0
  9
$PUCSORGBACK
 10
0.0
 20
0.0
 30
0.0
  9
$USERI1
 70
0
  9
$USERI2
 70
0
  9
$USERI3
 70
0
  9
$USERI4
 70
0
  9
$USERI5
 70
0
  9
$USERR1
 40
0.0
  9
$USERR2
 40
0.0
  9
$USERR3
 40
0.0
  9
$USERR4
 40
0.0
  9
$USERR5
 40
0.0
  9
$WORLDVIEW
 70
1
  9
$SHADEDGE
 70
3
  9
$SHADEDIF
 70
70
  9
$TILEMODE
 70
1
  9
$MAXACTVP
 70
64
  9
$PINSBASE
 10
0.0
 20
0.0
 30
0.0
  9
$PLIMCHECK
 70
0
  9
$PEXTMIN
 10
1e+20
 20
1e+20
 30
1e+20
  9
$PEXTMAX
 10
-1e+20
 20
-1e+20
 30
-1e+20
  9
$PLIMMIN
 10
0.0
 20
0.0
  9
$PLIMMAX
 10
420.0
 20
297.0
  9
$UNITMODE
 70
0
  9
$VISRETAIN
 70
1
  9
$PLINEGEN
 70
0
  9
$PSLTSCALE
 70
1
  9
$TREEDEPTH
 70
3020
  9
$CMLSTYLE
  2
Standard
  9
$CMLJUST
 70
0
  9
$CMLSCALE
 40
20.0
  9
$PROXYGRAPHICS
 70
1
  9
$MEASUREMENT
 70
1
  9
$CELWEIGHT
370
-1
  9
$ENDCAPS
280
0
  9
$JOINSTYLE
280
0
  9
$LWDISPLAY
290
0
  9
$INSUNITS
 70
4
  9
$HYPERLINKBASE
  1

  9
$STYLESHEET
  1

  9
$XEDIT
290
1
  9
$CEPSNTYPE
380
0
  9
$PSTYLEMODE
290
1
  9
$FINGERPRINTGUID
  2
{ADC95B97-077D-4AE3-B1A7-512B44019B9E}
  9
$VERSIONGUID
  2
{FA963771-A8C0-43A5-8C6F-42A5A6F5EDC1}
  9
$EXTNAMES
290
1
  9
$PSVPSCALE
 40
0.0
  9
$OLESTARTUP
290
0
  9
$SORTENTS
280
127
  9
$INDEXCTL
280
0
  9
$HIDETEXT
280
1
  9
$XCLIPFRAME
280
1
  9
$HALOGAP
280
0
  9
$OBSCOLOR
 70
257
  9
$OBSLTYPE
280
0
  9
$INTERSECTIONDISPLAY
280
0
  9
$INTERSECTIONCOLOR
 70
257
  9
$DIMASSOC
280
2
  9
$PROJECTNAME
  1

  9
$CAMERADISPLAY
290
0
  9
$LENSLENGTH
 40
50.0
  9
$CAMERAHEIGHT
 40
0.0
  9
$STEPSPERSEC
 40
24.0
  9
$STEPSIZE
 40
100.0
  9
$3DDWFPREC
 40
2.0
  9
$PSOLWIDTH
 40
0.005
  9
$PSOLHEIGHT
 40
0.08
  9
$LOFTANG1
 40
1.570796326795
  9
$LOFTANG2
 40
1.570796326795
  9
$LOFTMAG1
 40
0.0
  9
$LOFTMAG2
 40
0.0
  9
$LOFTPARAM
 70
7
  9
$LOFTNORMALS
280
1
  9
$LATITUDE
 40
37.795
  9
$LONGITUDE
 40
-122.394
  9
$NORTHDIRECTION
 40
0.0
  9
$TIMEZONE
 70
-8000
  9
$LIGHTGLYPHDISPLAY
280
1
  9
$TILEMODELIGHTSYNCH
280
1
  9
$CMATERIAL
347
20
  9
$SOLIDHIST
280
0
  9
$SHOWHIST
280
1
  9
$DWFFRAME
280
2
  9
$DGNFRAME
280
2
  9
$REALWORLDSCALE
290
1
  9
$INTERFERECOLOR
 62
256
  9
$CSHADOW
280
0
  9
$SHADOWPLANELOCATION
 40
0.0
  0
ENDSEC
  0
SECTION
  2
CLASSES
  0
CLASS
  1
ACDBDICTIONARYWDFLT
  2
AcDbDictionaryWithDefault
  3
ObjectDBX Classes
 90
0
 91
0
280
0
281
0
  0
CLASS
  1
SUN
  2
AcDbSun
  3
SCENEOE
 90
1153
 91
0
280
0
281
0
  0
CLASS
  1
VISUALSTYLE
  2
AcDbVisualStyle
  3
ObjectDBX Classes
 90
4095
 91
0
280
0
281
0
  0
CLASS
  1
MATERIAL
  2
AcDbMaterial
  3
ObjectDBX Classes
 90
1153
 91
0
280
0
281
0
  0
CLASS
  1
SCALE
  2
AcDbScale
  3
ObjectDBX Classes
 90
1153
 91
0
280
0
281
0
  0
CLASS
  1
TABLESTYLE
  2
AcDbTableStyle
  3
ObjectDBX Classes
 90
4095
 91
0
280
0
281
0
  0
CLASS
  1
MLEADERSTYLE
  2
AcDbMLeaderStyle
  3
ACDB_MLEADERSTYLE_CLASS
 90
4095
 91
0
280
0
281
0
  0
CLASS
  1
DICTIONARYVAR
  2
AcDbDictionaryVar
  3
ObjectDBX Classes
 90
0
 91
0
280
0
281
0
  0
CLASS
  1
CELLSTYLEMAP
  2
AcDbCellStyleMap
  3
ObjectDBX Classes
 90
1152
 91
0
280
0
281
0
  0
CLASS
  1
MENTALRAYRENDERSETTINGS
  2
AcDbMentalRayRenderSettings
  3
SCENEOE
 90
1024
 91
0
280
0
281
0
  0
CLASS
  1
ACDBDETAILVIEWSTYLE
  2
AcDbDetailViewStyle
  3
ObjectDBX Classes
 90
1025
 91
0
280
0
281
0
  0
CLASS
  1
ACDBSECTIONVIEWSTYLE
  2
AcDbSectionViewStyle
  3
ObjectDBX Classes
 90
1025
 91
0
280
0
281
0
  0
CLASS
  1
RASTERVARIABLES
  2
AcDbRasterVariables
  3
ISM
 90
0
 91
0
280
0
281
0
  0
CLASS
  1
LAYOUT
  2
AcDbLayout
  3
ObjectDBX Classes
 90
0
 91
0
280
0
281
0
  0
CLASS
  1
ACDBPLACEHOLDER
  2
AcDbPlaceHolder
  3
ObjectDBX Classes
 90
0
 91
0
280
0
281
0
  0
ENDSEC
  0
SECTION
  2
TABLES
  0
TABLE
  2
VPORT
  5
8
330
0
100
AcDbSymbolTable
 70
1
  0
VPORT
  5
23
330
8
100
AcDbSymbolTableRecord
100
AcDbViewportTableRecord
  2
*Active
 70
0
 10
0.0
 20
0.0
 11
1.0
 21
1.0
 12
0.0
 22
0.0
 13
0.0
 23
0.0
 14
0.5
 24
0.5
 15
0.5
 25
0.5
 16
0.0
 26
0.0
 36
1.0
 17
0.0
 27
0.0
 37
0.0
 40
1000.0
 41
1.34
 42
50.0
 43
0.0
 44
0.0
 50
0.0
 51
0.0
 71
0
 72
1000
 73
1
 74
3
 75
0
 76
0
 77
0
 78
0
281
0
 65
0
146
0.0
  0
ENDTAB
  0
TABLE
  2
LTYPE
  5
2
330
0
100
AcDbSymbolTable
 70
3
  0
LTYPE
  5
24
330
2
100
AcDbSymbolTableRecord
100
AcDbLinetypeTableRecord
  2
ByBlock
 70
0
  3

 72
65
 73
0
 40
0.0
  0
LTYPE
  5
25
330
2
100
AcDbSymbolTableRecord
100
AcDbLinetypeTableRecord
  2
ByLayer
 70
0
  3

 72
65
 73
0
 40
0.0
  0
LTYPE
  5
26
330
2
100
AcDbSymbolTableRecord
100
AcDbLinetypeTableRecord
  2
Continuous
 70
0
  3

 72
65
 73
0
 40
0.0
  0
ENDTAB
  0
TABLE
  2
LAYER
  5
1
330
0
100
AcDbSymbolTable
 70
2
  0
LAYER
  5
27
330
1
100
AcDbSymbolTableRecord
100
AcDbLayerTableRecord
  2
0
 70
0
 62
7
  6
Continuous
370
-3
390
13
347
21
  0
LAYER
  5
28
330
1
100
AcDbSymbolTableRecord
100
AcDbLayerTableRecord
  2
Defpoints
 70
0
 62
7
  6
Continuous
290
0
370
-3
390
13
347
21
  0
ENDTAB
  0
TABLE
  2
STYLE
  5
5
330
0
100
AcDbSymbolTable
 70
2
  0
STYLE
  5
29
330
5
100
AcDbSymbolTableRecord
100
AcDbTextStyleTableRecord
  2
Standard
 70
0
 40
0.0
 41
1.0
 50
0.0
 71
0
 42
2.5
  3
txt
  4

  0
STYLE
  5
A2
330
5
100
AcDbSymbolTableRecord
100
AcDbTextStyleTableRecord
  2
hztxt
 70
0
 40
0.0
 41
1.0
 50
0.0
 71
0
 42
2.5
  3
hztxt.shx
  4
gbcbig.shx
  0
ENDTAB
  0
TABLE
  2
VIEW
  5
7
330
0
100
AcDbSymbolTable
 70
0
  0
ENDTAB
  0
TABLE
  2
UCS
  5
6
330
0
100
AcDbSymbolTable
 70
0
  0
ENDTAB
  0
TABLE
  2
APPID
  5
3
330
0
100
AcDbSymbolTable
 70
3
  0
APPID
  5
2A
330
3
100
AcDbSymbolTableRecord
100
AcDbRegAppTableRecord
  2
ACAD
 70
0
  0
APPID
  5
9F
330
3
100
AcDbSymbolTableRecord
100
AcDbRegAppTableRecord
  2
HATCHBACKGROUNDCOLOR
 70
0
  0
APPID
  5
A0
330
3
100
AcDbSymbolTableRecord
100
AcDbRegAppTableRecord
  2
EZDXF
 70
0
  0
ENDTAB
  0
TABLE
  2
DIMSTYLE
  5
4
330
0
100
AcDbSymbolTable
 70
1
100
AcDbDimStyleTable
  0
DIMSTYLE
105
2B
330
4
100
AcDbSymbolTableRecord
100
AcDbDimStyleTableRecord
  2
Standard
 70
0
 40
1.0
 41
2.5
 42
0.625
 43
3.75
 44
1.25
 45
0.0
 46
0.0
 47
0.0
 48
0.0
 49
2.5
140
2.5
141
2.5
142
0.0
143
0.03937007874
144
1.0
145
0.0
146
1.0
147
0.625
148
0.0
 69
0
 70
0
 71
0
 72
0
 73
0
 74
0
 75
0
 76
0
 77
1
 78
8
 79
3
170
0
171
3
172
1
173
0
174
0
175
0
176
0
177
0
178
0
179
2
271
2
272
2
273
2
274
3
275
0
276
0
277
2
278
44
279
0
280
0
281
0
282
0
283
0
284
8
285
0
286
0
288
0
289
3
290
0
371
-2
372
-2
  0
ENDTAB
  0
TABLE
  2
BLOCK_RECORD
  5
9
330
0
100
AcDbSymbolTable
 70
2
  0
BLOCK_RECORD
  5
17
330
9
100
AcDbSymbolTableRecord
100
AcDbBlockTableRecord
  2
*Model_Space
340
1A
 70
0
280
1
281
0
  0
BLOCK_RECORD
  5
1B
330
9
100
AcDbSymbolTableRecord
100
AcDbBlockTableRecord
  2
*Paper_Space
340
1E
 70
0
280
1
281
0
  0
ENDTAB
  0
ENDSEC
  0
SECTION
  2
BLOCKS
  0
BLOCK
  5
18
330
17
100
AcDbEntity
  8
0
100
AcDbBlockBegin
  2
*Model_Space
 70
0
 10
0.0
 20
0.0
 30
0.0
  3
*Model_Space
  1

  0
ENDBLK
  5
19
330
17
100
AcDbEntity
  8
0
100
AcDbBlockEnd
  0
BLOCK
  5
1C
330
1B
100
AcDbEntity
  8
0
100
AcDbBlockBegin
  2
*Paper_Space
 70
0
 10
0.0
 20
0.0
 30
0.0
  3
*Paper_Space
  1

  0
ENDBLK
  5
1D
330
1B
100
AcDbEntity
  8
0
100
AcDbBlockEnd
  0
ENDSEC
  0
SECTION
  2
ENTITIES
  0
LINE
  5
2F
330
17
100
AcDbEntity
  8
FRAME
 62
7
370
50
100
AcDbLine
 10
0.0
 20
0.0
 30
0.0
 11
1160.0
 21
0.0
 31
0.0
  0
LINE
  5
30
330
17
100
AcDbEntity
  8
FRAME
 62
7
370
50
100
AcDbLine
 10
1160.0
 20
0.0
 30
0.0
 11
1160.0
 21
810.0
 31
0.0
  0
LINE
  5
31
330
17
100
AcDbEntity
  8
FRAME
 62
7
370
50
100
AcDbLine
 10
1160.0
 20
810.0
 30
0.0
 11
0.0
 21
810.0
 31
0.0
  0
LINE
  5
32
330
17
100
AcDbEntity
  8
FRAME
 62
7
370
50
100
AcDbLine
 10
0.0
 20
810.0
 30
0.0
 11
0.0
 21
0.0
 31
0.0
  0
LINE
  5
33
330
17
100
AcDbEntity
  8
FRAME
 62
7
370
13
100
AcDbLine
 10
15.0
 20
15.0
 30
0.0
 11
1145.0
 21
15.0
 31
0.0
  0
LINE
  5
34
330
17
100
AcDbEntity
  8
FRAME
 62
7
370
13
100
AcDbLine
 10
1145.0
 20
15.0
 30
0.0
 11
1145.0
 21
795.0
 31
0.0
  0
LINE
  5
35
330
17
100
AcDbEntity
  8
FRAME
 62
7
370
13
100
AcDbLine
 10
1145.0
 20
795.0
 30
0.0
 11
15.0
 21
795.0
 31
0.0
  0
LINE
  5
36
330
17
100
AcDbEntity
  8
FRAME
 62
7
370
13
100
AcDbLine
 10
15.0
 20
795.0
 30
0.0
 11
15.0
 21
15.0
 31
0.0
  0
LWPOLYLINE
  5
37
330
17
100
AcDbEntity
  8
FRAME
 62
7
370
35
100
AcDbPolyline
 90
5
 70
0
 10
865.0
 20
15.0
 10
1145.0
 20
15.0
 10
1145.0
 20
85.0
 10
865.0
 20
85.0
 10
865.0
 20
15.0
  0
LINE
  5
38
330
17
100
AcDbEntity
  8
FRAME
 62
7
370
13
100
AcDbLine
 10
865.0
 20
35.0
 30
0.0
 11
1145.0
 21
35.0
 31
0.0
  0
LINE
  5
39
330
17
100
AcDbEntity
  8
FRAME
 62
7
370
13
100
AcDbLine
 10
1005.0
 20
15.0
 30
0.0
 11
1005.0
 21
35.0
 31
0.0
  0
LINE
  5
3A
330
17
100
AcDbEntity
  8
FRAME
 62
7
370
13
100
AcDbLine
 10
865.0
 20
51.66666666666667
 30
0.0
 11
1005.0
 21
51.66666666666667
 31
0.0
  0
LINE
  5
3B
330
17
100
AcDbEntity
  8
FRAME
 62
7
370
13
100
AcDbLine
 10
935.0
 20
51.66666666666667
 30
0.0
 11
935.0
 21
85.0
 31
0.0
  0
LINE
  5
3C
330
17
100
AcDbEntity
  8
FRAME
 62
7
370
13
100
AcDbLine
 10
865.0
 20
68.33333333333334
 30
0.0
 11
1005.0
 21
68.33333333333334
 31
0.0
  0
LINE
  5
3D
330
17
100
AcDbEntity
  8
FRAME
 62
7
370
13
100
AcDbLine
 10
935.0
 20
68.33333333333334
 30
0.0
 11
935.0
 21
85.0
 31
0.0
  0
LINE
  5
3E
330
17
100
AcDbEntity
  8
FRAME
 62
7
370
13
100
AcDbLine
 10
865.0
 20
85.0
 30
0.0
 11
1005.0
 21
85.0
 31
0.0
  0
LINE
  5
3F
330
17
100
AcDbEntity
  8
FRAME
 62
7
370
13
100
AcDbLine
 10
935.0
 20
85.0
 30
0.0
 11
935.0
 21
85.0
 31
0.0
  0
TEXT
  5
40
330
17
100
AcDbEntity
  8
0
100
AcDbText
 10
870.0
 20
38.0
 30
0.0
 40
4.0
  1
陕西省吴起县城供水规划
100
AcDbText
  0
TEXT
  5
41
330
17
100
AcDbEntity
  8
0
100
AcDbText
 10
870.0
 20
21.0
 30
0.0
 40
3.5
  1
张家洼水源地～第三水厂输水管线平面布置图
100
AcDbText
  0
TEXT
  5
42
330
17
100
AcDbEntity
  8
0
100
AcDbText
 10
1010.0
 20
20.0
 30
0.0
 40
2.5
  1
图号：图5
100
AcDbText
  0
TEXT
  5
43
330
17
100
AcDbEntity
  8
0
100
AcDbText
 10
870.0
 20
50.0
 30
0.0
 40
2.2
  1
设计：周鑫雨
100
AcDbText
  0
TEXT
  5
44
330
17
100
AcDbEntity
  8
0
100
AcDbText
 10
940.0
 20
50.0
 30
0.0
 40
2.2
  1
学号：3220662018
100
AcDbText
  0
TEXT
  5
45
330
17
100
AcDbEntity
  8
0
100
AcDbText
 10
870.0
 20
67.0
 30
0.0
 40
2.2
  1
指导教师：聂卫波/孙胜祥
100
AcDbText
  0
TEXT
  5
46
330
17
100
AcDbEntity
  8
0
100
AcDbText
 10
940.0
 20
67.0
 30
0.0
 40
2.2
  1
日期：2026.05
100
AcDbText
  0
TEXT
  5
47
330
17
100
AcDbEntity
  8
0
100
AcDbText
 10
870.0
 20
81.0
 30
0.0
 40
2.2
  1
西北农林科技大学水利水电学院
100
AcDbText
  0
CIRCLE
  5
48
330
17
100
AcDbEntity
  8
FRAME
 62
7
370
13
100
AcDbCircle
 10
40.0
 20
100.0
 30
0.0
 40
15.0
  0
LINE
  5
49
330
17
100
AcDbEntity
  8
FRAME
 62
7
370
25
100
AcDbLine
 10
40.0
 20
88.0
 30
0.0
 11
36.0
 21
105.0
 31
0.0
  0
LINE
  5
4A
330
17
100
AcDbEntity
  8
FRAME
 62
7
370
25
100
AcDbLine
 10
40.0
 20
88.0
 30
0.0
 11
44.0
 21
105.0
 31
0.0
  0
TEXT
  5
4B
330
17
100
AcDbEntity
  8
0
100
AcDbText
 10
36.0
 20
75.0
 30
0.0
 40
4.0
  1
北
100
AcDbText
  0
LINE
  5
4C
330
17
100
AcDbEntity
  8
RIVER
 62
7
370
13
100
AcDbLine
 10
806.7909975010173
 20
778.3022506247456
 30
0.0
 11
786.7909975010173
 21
698.3022506247456
 31
0.0
  0
LINE
  5
4D
330
17
100
AcDbEntity
  8
RIVER
 62
7
370
13
100
AcDbLine
 10
793.2090024989827
 20
781.6977493752544
 30
0.0
 11
773.2090024989827
 21
701.6977493752544
 31
0.0
  0
LINE
  5
4E
330
17
100
AcDbEntity
  8
RIVER
 62
7
370
13
100
AcDbLine
 10
786.7909975010173
 20
698.3022506247456
 30
0.0
 11
766.7909975010173
 21
618.3022506247456
 31
0.0
  0
LINE
  5
4F
330
17
100
AcDbEntity
  8
RIVER
 62
7
370
13
100
AcDbLine
 10
773.2090024989827
 20
701.6977493752544
 30
0.0
 11
753.2090024989827
 21
621.6977493752544
 31
0.0
  0
LINE
  5
50
330
17
100
AcDbEntity
  8
RIVER
 62
7
370
13
100
AcDbLine
 10
766.7909975010173
 20
618.3022506247456
 30
0.0
 11
746.7909975010173
 21
538.3022506247456
 31
0.0
  0
LINE
  5
51
330
17
100
AcDbEntity
  8
RIVER
 62
7
370
13
100
AcDbLine
 10
753.2090024989827
 20
621.6977493752544
 30
0.0
 11
733.2090024989827
 21
541.6977493752544
 31
0.0
  0
LINE
  5
52
330
17
100
AcDbEntity
  8
RIVER
 62
7
370
13
100
AcDbLine
 10
746.7909975010173
 20
538.3022506247456
 30
0.0
 11
726.7909975010173
 21
458.3022506247457
 31
0.0
  0
LINE
  5
53
330
17
100
AcDbEntity
  8
RIVER
 62
7
370
13
100
AcDbLine
 10
733.2090024989827
 20
541.6977493752544
 30
0.0
 11
713.2090024989827
 21
461.6977493752543
 31
0.0
  0
LINE
  5
54
330
17
100
AcDbEntity
  8
RIVER
 62
7
370
13
100
AcDbLine
 10
726.7909975010173
 20
458.3022506247457
 30
0.0
 11
706.7909975010173
 21
378.3022506247457
 31
0.0
  0
LINE
  5
55
330
17
100
AcDbEntity
  8
RIVER
 62
7
370
13
100
AcDbLine
 10
713.2090024989827
 20
461.6977493752543
 30
0.0
 11
693.2090024989827
 21
381.6977493752543
 31
0.0
  0
LINE
  5
56
330
17
100
AcDbEntity
  8
RIVER
 62
7
370
13
100
AcDbLine
 10
706.7909975010173
 20
378.3022506247457
 30
0.0
 11
686.7909975010173
 21
298.3022506247457
 31
0.0
  0
LINE
  5
57
330
17
100
AcDbEntity
  8
RIVER
 62
7
370
13
100
AcDbLine
 10
693.2090024989827
 20
381.6977493752543
 30
0.0
 11
673.2090024989827
 21
301.6977493752543
 31
0.0
  0
LINE
  5
58
330
17
100
AcDbEntity
  8
RIVER
 62
7
370
13
100
AcDbLine
 10
686.7909975010173
 20
298.3022506247457
 30
0.0
 11
666.7909975010173
 21
218.30225062474568
 31
0.0
  0
LINE
  5
59
330
17
100
AcDbEntity
  8
RIVER
 62
7
370
13
100
AcDbLine
 10
673.2090024989827
 20
301.6977493752543
 30
0.0
 11
653.2090024989827
 21
221.69774937525432
 31
0.0
  0
LINE
  5
5A
330
17
100
AcDbEntity
  8
RIVER
 62
7
370
13
100
AcDbLine
 10
666.7909975010173
 20
218.30225062474568
 30
0.0
 11
646.7909975010173
 21
138.30225062474568
 31
0.0
  0
LINE
  5
5B
330
17
100
AcDbEntity
  8
RIVER
 62
7
370
13
100
AcDbLine
 10
653.2090024989827
 20
221.69774937525432
 30
0.0
 11
633.2090024989827
 21
141.69774937525432
 31
0.0
  0
LINE
  5
5C
330
17
100
AcDbEntity
  8
RIVER
 62
7
370
13
100
AcDbLine
 10
646.7909975010173
 20
138.30225062474568
 30
0.0
 11
626.7909975010173
 21
58.30225062474567
 31
0.0
  0
LINE
  5
5D
330
17
100
AcDbEntity
  8
RIVER
 62
7
370
13
100
AcDbLine
 10
633.2090024989827
 20
141.69774937525432
 30
0.0
 11
613.2090024989827
 21
61.69774937525433
 31
0.0
  0
LINE
  5
5E
330
17
100
AcDbEntity
  8
RIVER
 62
7
370
13
100
AcDbLine
 10
947.0938090314045
 20
475.9313326439663
 30
0.0
 11
877.0938090314045
 21
525.9313326439664
 31
0.0
  0
LINE
  5
5F
330
17
100
AcDbEntity
  8
RIVER
 62
7
370
13
100
AcDbLine
 10
952.9061909685955
 20
484.0686673560337
 30
0.0
 11
882.9061909685955
 21
534.0686673560336
 31
0.0
  0
LINE
  5
60
330
17
100
AcDbEntity
  8
RIVER
 62
7
370
13
100
AcDbLine
 10
878.244382792058
 20
525.3183541121548
 30
0.0
 11
798.244382792058
 21
555.3183541121548
 31
0.0
  0
LINE
  5
61
330
17
100
AcDbEntity
  8
RIVER
 62
7
370
13
100
AcDbLine
 10
881.755617207942
 20
534.6816458878452
 30
0.0
 11
801.755617207942
 21
564.6816458878452
 31
0.0
  0
LINE
  5
62
330
17
100
AcDbEntity
  8
RIVER
 62
7
370
13
100
AcDbLine
 10
801.2126781251817
 20
555.1492874992733
 30
0.0
 11
721.2126781251817
 21
535.1492874992733
 31
0.0
  0
LINE
  5
63
330
17
100
AcDbEntity
  8
RIVER
 62
7
370
13
100
AcDbLine
 10
798.7873218748183
 20
564.8507125007267
 30
0.0
 11
718.7873218748183
 21
544.8507125007267
 31
0.0
  0
LINE
  5
64
330
17
100
AcDbEntity
  8
RIVER
 62
7
370
13
100
AcDbLine
 10
398.9466296752348
 20
402.80898753270714
 30
0.0
 11
478.9466296752348
 21
432.80898753270714
 31
0.0
  0
LINE
  5
65
330
17
100
AcDbEntity
  8
RIVER
 62
7
370
13
100
AcDbLine
 10
401.0533703247652
 20
397.19101246729286
 30
0.0
 11
481.0533703247652
 21
427.19101246729286
 31
0.0
  0
LINE
  5
66
330
17
100
AcDbEntity
  8
RIVER
 62
7
370
13
100
AcDbLine
 10
479.1758366163079
 20
432.88457184292247
 30
0.0
 11
549.1758366163078
 21
452.88457184292247
 31
0.0
  0
LINE
  5
67
330
17
100
AcDbEntity
  8
RIVER
 62
7
370
13
100
AcDbLine
 10
480.8241633836921
 20
427.11542815707753
 30
0.0
 11
550.8241633836922
 21
447.11542815707753
 31
0.0
  0
LINE
  5
68
330
17
100
AcDbEntity
  8
RIVER
 62
7
370
13
100
AcDbLine
 10
549.575735931288
 20
452.9698484809835
 30
0.0
 11
619.575735931288
 21
462.9698484809835
 31
0.0
  0
LINE
  5
69
330
17
100
AcDbEntity
  8
RIVER
 62
7
370
13
100
AcDbLine
 10
550.424264068712
 20
447.0301515190165
 30
0.0
 11
620.424264068712
 21
457.0301515190165
 31
0.0
  0
LINE
  5
6A
330
17
100
AcDbEntity
  8
RIVER
 62
7
370
13
100
AcDbLine
 10
349.5757359312881
 20
552.9698484809835
 30
0.0
 11
419.5757359312881
 21
562.9698484809835
 31
0.0
  0
LINE
  5
6B
330
17
100
AcDbEntity
  8
RIVER
 62
7
370
13
100
AcDbLine
 10
350.4242640687119
 20
547.0301515190165
 30
0.0
 11
420.4242640687119
 21
557.0301515190165
 31
0.0
  0
LINE
  5
6C
330
17
100
AcDbEntity
  8
RIVER
 62
7
370
13
100
AcDbLine
 10
419.6278957962324
 20
562.976833630141
 30
0.0
 11
499.6278957962324
 21
572.976833630141
 31
0.0
  0
LINE
  5
6D
330
17
100
AcDbEntity
  8
RIVER
 62
7
370
13
100
AcDbLine
 10
420.3721042037676
 20
557.023166369859
 30
0.0
 11
500.3721042037676
 21
567.023166369859
 31
0.0
  0
LINE
  5
6E
330
17
100
AcDbEntity
  8
RIVER
 62
7
370
13
100
AcDbLine
 10
499.6278957962324
 20
572.976833630141
 30
0.0
 11
579.6278957962323
 21
582.976833630141
 31
0.0
  0
LINE
  5
6F
330
17
100
AcDbEntity
  8
RIVER
 62
7
370
13
100
AcDbLine
 10
500.3721042037676
 20
567.023166369859
 30
0.0
 11
580.3721042037677
 21
577.023166369859
 31
0.0
  0
LINE
  5
70
330
17
100
AcDbEntity
  8
RIVER
 62
7
370
13
100
AcDbLine
 10
579.6278957962323
 20
582.976833630141
 30
0.0
 11
659.6278957962323
 21
592.976833630141
 31
0.0
  0
LINE
  5
71
330
17
100
AcDbEntity
  8
RIVER
 62
7
370
13
100
AcDbLine
 10
580.3721042037677
 20
577.023166369859
 30
0.0
 11
660.3721042037677
 21
587.023166369859
 31
0.0
  0
LINE
  5
72
330
17
100
AcDbEntity
  8
RIVER
 62
7
370
13
100
AcDbLine
 10
300.3721042037676
 20
652.976833630141
 30
0.0
 11
380.3721042037676
 21
642.976833630141
 31
0.0
  0
LINE
  5
73
330
17
100
AcDbEntity
  8
RIVER
 62
7
370
13
100
AcDbLine
 10
299.6278957962324
 20
647.023166369859
 30
0.0
 11
379.6278957962324
 21
637.023166369859
 31
0.0
  0
LINE
  5
74
330
17
100
AcDbEntity
  8
RIVER
 62
7
370
13
100
AcDbLine
 10
380.3721042037676
 20
642.976833630141
 30
0.0
 11
460.3721042037676
 21
632.976833630141
 31
0.0
  0
LINE
  5
75
330
17
100
AcDbEntity
  8
RIVER
 62
7
370
13
100
AcDbLine
 10
379.6278957962324
 20
637.023166369859
 30
0.0
 11
459.6278957962324
 21
627.023166369859
 31
0.0
  0
LINE
  5
76
330
17
100
AcDbEntity
  8
RIVER
 62
7
370
13
100
AcDbLine
 10
460.3721042037676
 20
632.976833630141
 30
0.0
 11
540.3721042037677
 21
622.976833630141
 31
0.0
  0
LINE
  5
77
330
17
100
AcDbEntity
  8
RIVER
 62
7
370
13
100
AcDbLine
 10
459.6278957962324
 20
627.023166369859
 30
0.0
 11
539.6278957962323
 21
617.023166369859
 31
0.0
  0
LINE
  5
78
330
17
100
AcDbEntity
  8
RIVER
 62
7
370
13
100
AcDbLine
 10
540.3721042037677
 20
622.976833630141
 30
0.0
 11
620.3721042037677
 21
612.976833630141
 31
0.0
  0
LINE
  5
79
330
17
100
AcDbEntity
  8
RIVER
 62
7
370
13
100
AcDbLine
 10
539.6278957962323
 20
617.023166369859
 30
0.0
 11
619.6278957962323
 21
607.023166369859
 31
0.0
  0
LINE
  5
7A
330
17
100
AcDbEntity
  8
PIPE
 62
7
370
30
100
AcDbLine
 10
200.0
 20
300.0
 30
0.0
 11
280.0
 21
320.0
 31
0.0
  0
LINE
  5
7B
330
17
100
AcDbEntity
  8
PIPE
 62
7
370
30
100
AcDbLine
 10
280.0
 20
320.0
 30
0.0
 11
360.0
 21
350.0
 31
0.0
  0
LINE
  5
7C
330
17
100
AcDbEntity
  8
PIPE
 62
7
370
30
100
AcDbLine
 10
360.0
 20
350.0
 30
0.0
 11
420.0
 21
400.0
 31
0.0
  0
LINE
  5
7D
330
17
100
AcDbEntity
  8
TUNNEL
 62
7
370
30
100
AcDbLine
 10
420.0
 20
400.0
 30
0.0
 11
480.0
 21
450.0
 31
0.0
  0
TEXT
  5
7E
330
17
100
AcDbEntity
  8
0
100
AcDbText
 10
400.0
 20
430.0
 30
0.0
 40
2.5
  1
隧洞1040m
100
AcDbText
  0
LINE
  5
7F
330
17
100
AcDbEntity
  8
PIPE
 62
7
370
30
100
AcDbLine
 10
480.0
 20
450.0
 30
0.0
 11
520.0
 21
500.0
 31
0.0
  0
LINE
  5
80
330
17
100
AcDbEntity
  8
PIPE
 62
7
370
30
100
AcDbLine
 10
520.0
 20
500.0
 30
0.0
 11
560.0
 21
550.0
 31
0.0
  0
LINE
  5
81
330
17
100
AcDbEntity
  8
PIPE
 62
7
370
30
100
AcDbLine
 10
560.0
 20
550.0
 30
0.0
 11
600.0
 21
600.0
 31
0.0
  0
LINE
  5
82
330
17
100
AcDbEntity
  8
PIPE
 62
7
370
30
100
AcDbLine
 10
600.0
 20
600.0
 30
0.0
 11
650.0
 21
650.0
 31
0.0
  0
LINE
  5
83
330
17
100
AcDbEntity
  8
PIPE
 62
7
370
30
100
AcDbLine
 10
650.0
 20
650.0
 30
0.0
 11
700.0
 21
700.0
 31
0.0
  0
LINE
  5
84
330
17
100
AcDbEntity
  8
PIPE
 62
7
370
30
100
AcDbLine
 10
700.0
 20
700.0
 30
0.0
 11
750.0
 21
750.0
 31
0.0
  0
LINE
  5
85
330
17
100
AcDbEntity
  8
PIPE
 62
7
370
30
100
AcDbLine
 10
750.0
 20
750.0
 30
0.0
 11
800.0
 21
700.0
 31
0.0
  0
TEXT
  5
86
330
17
100
AcDbEntity
  8
0
100
AcDbText
 10
300.0
 20
380.0
 30
0.0
 40
3.0
  1
DN200-400mm
100
AcDbText
  0
TEXT
  5
87
330
17
100
AcDbEntity
  8
0
100
AcDbText
 10
300.0
 20
360.0
 30
0.0
 40
3.0
  1
约30.18km
100
AcDbText
  0
LWPOLYLINE
  5
88
330
17
100
AcDbEntity
  8
NODE
 62
7
370
25
100
AcDbPolyline
 90
5
 70
0
 10
200.0
 20
308.0
 10
208.0
 20
300.0
 10
200.0
 20
292.0
 10
192.0
 20
300.0
 10
200.0
 20
308.0
  0
TEXT
  5
89
330
17
100
AcDbEntity
  8
0
100
AcDbText
 10
212.0
 20
300.0
 30
0.0
 40
3.0
  1
张家洼4眼井
100
AcDbText
  0
LWPOLYLINE
  5
8A
330
17
100
AcDbEntity
  8
NODE
 62
7
370
25
100
AcDbPolyline
 90
5
 70
0
 10
480.0
 20
458.0
 10
488.0
 20
450.0
 10
480.0
 20
442.0
 10
472.0
 20
450.0
 10
480.0
 20
458.0
  0
TEXT
  5
8B
330
17
100
AcDbEntity
  8
0
100
AcDbText
 10
492.0
 20
450.0
 30
0.0
 40
3.0
  1
薛岔3眼井
100
AcDbText
  0
LWPOLYLINE
  5
8C
330
17
100
AcDbEntity
  8
NODE
 62
7
370
25
100
AcDbPolyline
 90
5
 70
0
 10
560.0
 20
558.0
 10
568.0
 20
550.0
 10
560.0
 20
542.0
 10
552.0
 20
550.0
 10
560.0
 20
558.0
  0
TEXT
  5
8D
330
17
100
AcDbEntity
  8
0
100
AcDbText
 10
572.0
 20
550.0
 30
0.0
 40
3.0
  1
陈砭4眼井
100
AcDbText
  0
LWPOLYLINE
  5
8E
330
17
100
AcDbEntity
  8
NODE
 62
7
370
25
100
AcDbPolyline
 90
5
 70
0
 10
650.0
 20
658.0
 10
658.0
 20
650.0
 10
650.0
 20
642.0
 10
642.0
 20
650.0
 10
650.0
 20
658.0
  0
TEXT
  5
8F
330
17
100
AcDbEntity
  8
0
100
AcDbText
 10
662.0
 20
650.0
 30
0.0
 40
3.0
  1
沙集4眼井
100
AcDbText
  0
TEXT
  5
90
330
17
100
AcDbEntity
  8
0
100
AcDbText
 10
200.0
 20
200.0
 30
0.0
 40
2.5
  1
排气阀85处
100
AcDbText
  0
TEXT
  5
91
330
17
100
AcDbEntity
  8
0
100
AcDbText
 10
200.0
 20
185.0
 30
0.0
 40
2.5
  1
检修阀井12处
100
AcDbText
  0
TEXT
  5
92
330
17
100
AcDbEntity
  8
0
100
AcDbText
 10
200.0
 20
170.0
 30
0.0
 40
2.5
  1
镇墩45处
100
AcDbText
  0
TEXT
  5
93
330
17
100
AcDbEntity
  8
0
100
AcDbText
 10
420.0
 20
520.0
 30
0.0
 40
3.0
  1
"长藤结瓜"式布局
100
AcDbText
  0
LWPOLYLINE
  5
94
330
17
100
AcDbEntity
  8
NODE
 62
7
370
25
100
AcDbPolyline
 90
5
 70
0
 10
772.5
 20
685.0
 10
827.5
 20
685.0
 10
827.5
 20
715.0
 10
772.5
 20
715.0
 10
772.5
 20
685.0
  0
TEXT
  5
95
330
17
100
AcDbEntity
  8
0
100
AcDbText
 10
777.5
 20
703.0
 30
0.0
 40
2.5
  1
第三水厂(走马台)
100
AcDbText
  0
LWPOLYLINE
  5
96
330
17
100
AcDbEntity
  8
LABEL
 62
7
370
25
100
AcDbPolyline
 90
5
 70
0
 10
900.0
 20
150.0
 10
1020.0
 20
150.0
 10
1020.0
 20
60.0
 10
900.0
 20
60.0
 10
900.0
 20
150.0
  0
TEXT
  5
97
330
17
100
AcDbEntity
  8
0
100
AcDbText
 10
903.0
 20
145.0
 30
0.0
 40
3.0
  1
图例
100
AcDbText
  0
LINE
  5
98
330
17
100
AcDbEntity
  8
PIPE
 62
7
370
30
100
AcDbLine
 10
905.0
 20
132.0
 30
0.0
 11
925.0
 21
132.0
 31
0.0
  0
TEXT
  5
99
330
17
100
AcDbEntity
  8
0
100
AcDbText
 10
930.0
 20
129.0
 30
0.0
 40
2.0
  1
输水管道
100
AcDbText
  0
LWPOLYLINE
  5
9A
330
17
100
AcDbEntity
  8
NODE
 62
7
370
25
100
AcDbPolyline
 90
5
 70
0
 10
915.0
 20
122.0
 10
921.0
 20
117.0
 10
915.0
 20
112.0
 10
909.0
 20
117.0
 10
915.0
 20
122.0
  0
TEXT
  5
9B
330
17
100
AcDbEntity
  8
0
100
AcDbText
 10
930.0
 20
114.0
 30
0.0
 40
2.0
  1
水源地
100
AcDbText
  0
LINE
  5
9C
330
17
100
AcDbEntity
  8
TUNNEL
 62
7
370
30
100
AcDbLine
 10
905.0
 20
102.0
 30
0.0
 11
925.0
 21
102.0
 31
0.0
  0
TEXT
  5
9D
330
17
100
AcDbEntity
  8
0
100
AcDbText
 10
930.0
 20
99.0
 30
0.0
 40
2.0
  1
隧洞
100
AcDbText
  0
TEXT
  5
9E
330
17
100
AcDbEntity
  8
0
100
AcDbText
 10
500.0
 20
770.0
 30
0.0
 40
3.0
  1
输水管线总长：约30.18km
100
AcDbText
  0
ENDSEC
  0
SECTION
  2
OBJECTS
  0
DICTIONARY
  5
A
330
0
100
AcDbDictionary
281
1
  3
ACAD_COLOR
350
B
  3
ACAD_GROUP
350
C
  3
ACAD_LAYOUT
350
D
  3
ACAD_MATERIAL
350
E
  3
ACAD_MLEADERSTYLE
350
F
  3
ACAD_MLINESTYLE
350
10
  3
ACAD_PLOTSETTINGS
350
11
  3
ACAD_PLOTSTYLENAME
350
12
  3
ACAD_SCALELIST
350
14
  3
ACAD_TABLESTYLE
350
15
  3
ACAD_VISUALSTYLE
350
16
  3
EZDXF_META
350
2D
  0
DICTIONARY
  5
B
330
A
100
AcDbDictionary
281
1
  0
DICTIONARY
  5
C
330
A
100
AcDbDictionary
281
1
  0
DICTIONARY
  5
D
330
A
100
AcDbDictionary
281
1
  3
Model
350
1A
  3
Layout1
350
1E
  0
DICTIONARY
  5
E
330
A
100
AcDbDictionary
281
1
  3
ByBlock
350
1F
  3
ByLayer
350
20
  3
Global
350
21
  0
DICTIONARY
  5
F
330
A
100
AcDbDictionary
281
1
  3
Standard
350
2C
  0
DICTIONARY
  5
10
330
A
100
AcDbDictionary
281
1
  3
Standard
350
22
  0
DICTIONARY
  5
11
330
A
100
AcDbDictionary
281
1
  0
ACDBDICTIONARYWDFLT
  5
12
330
A
100
AcDbDictionary
281
1
  3
Normal
350
13
100
AcDbDictionaryWithDefault
340
13
  0
ACDBPLACEHOLDER
  5
13
330
12
  0
DICTIONARY
  5
14
330
A
100
AcDbDictionary
281
1
  0
DICTIONARY
  5
15
330
A
100
AcDbDictionary
281
1
  0
DICTIONARY
  5
16
330
A
100
AcDbDictionary
281
1
  0
LAYOUT
  5
1A
330
D
100
AcDbPlotSettings
  1

  4
A3
  6

 40
7.5
 41
20.0
 42
7.5
 43
20.0
 44
420.0
 45
297.0
 46
0.0
 47
0.0
 48
0.0
 49
0.0
140
0.0
141
0.0
142
1.0
143
1.0
 70
1024
 72
1
 73
0
 74
5
  7

 75
16
 76
0
 77
2
 78
300
147
1.0
148
0.0
149
0.0
100
AcDbLayout
  1
Model
 70
1
 71
0
 10
0.0
 20
0.0
 11
420.0
 21
297.0
 12
0.0
 22
0.0
 32
0.0
 14
1e+20
 24
1e+20
 34
1e+20
 15
-1e+20
 25
-1e+20
 35
-1e+20
146
0.0
 13
0.0
 23
0.0
 33
0.0
 16
1.0
 26
0.0
 36
0.0
 17
0.0
 27
1.0
 37
0.0
 76
1
330
17
  0
LAYOUT
  5
1E
330
D
100
AcDbPlotSettings
  1

  4
A3
  6

 40
7.5
 41
20.0
 42
7.5
 43
20.0
 44
420.0
 45
297.0
 46
0.0
 47
0.0
 48
0.0
 49
0.0
140
0.0
141
0.0
142
1.0
143
1.0
 70
0
 72
1
 73
0
 74
5
  7

 75
16
 76
0
 77
2
 78
300
147
1.0
148
0.0
149
0.0
100
AcDbLayout
  1
Layout1
 70
1
 71
1
 10
0.0
 20
0.0
 11
420.0
 21
297.0
 12
0.0
 22
0.0
 32
0.0
 14
1e+20
 24
1e+20
 34
1e+20
 15
-1e+20
 25
-1e+20
 35
-1e+20
146
0.0
 13
0.0
 23
0.0
 33
0.0
 16
1.0
 26
0.0
 36
0.0
 17
0.0
 27
1.0
 37
0.0
 76
1
330
1B
  0
MATERIAL
  5
1F
102
{ACAD_REACTORS
330
E
102
}
330
E
100
AcDbMaterial
  1
ByBlock
  2

 70
0
 40
1.0
 71
1
 41
1.0
 91
-1023410177
 42
1.0
 72
1
  3

 73
1
 74
1
 75
1
 44
0.5
 73
0
 45
1.0
 46
1.0
 77
1
  4

 78
1
 79
1
170
1
 48
1.0
171
1
  6

172
1
173
1
174
1
140
1.0
141
1.0
175
1
  7

176
1
177
1
178
1
143
1.0
179
1
  8

270
1
271
1
272
1
145
1.0
146
1.0
273
1
  9

274
1
275
1
276
1
 42
1.0
 72
1
  3

 73
1
 74
1
 75
1
 94
63
  0
MATERIAL
  5
20
102
{ACAD_REACTORS
330
E
102
}
330
E
100
AcDbMaterial
  1
ByLayer
  2

 70
0
 40
1.0
 71
1
 41
1.0
 91
-1023410177
 42
1.0
 72
1
  3

 73
1
 74
1
 75
1
 44
0.5
 73
0
 45
1.0
 46
1.0
 77
1
  4

 78
1
 79
1
170
1
 48
1.0
171
1
  6

172
1
173
1
174
1
140
1.0
141
1.0
175
1
  7

176
1
177
1
178
1
143
1.0
179
1
  8

270
1
271
1
272
1
145
1.0
146
1.0
273
1
  9

274
1
275
1
276
1
 42
1.0
 72
1
  3

 73
1
 74
1
 75
1
 94
63
  0
MATERIAL
  5
21
102
{ACAD_REACTORS
330
E
102
}
330
E
100
AcDbMaterial
  1
Global
  2

 70
0
 40
1.0
 71
1
 41
1.0
 91
-1023410177
 42
1.0
 72
1
  3

 73
1
 74
1
 75
1
 44
0.5
 73
0
 45
1.0
 46
1.0
 77
1
  4

 78
1
 79
1
170
1
 48
1.0
171
1
  6

172
1
173
1
174
1
140
1.0
141
1.0
175
1
  7

176
1
177
1
178
1
143
1.0
179
1
  8

270
1
271
1
272
1
145
1.0
146
1.0
273
1
  9

274
1
275
1
276
1
 42
1.0
 72
1
  3

 73
1
 74
1
 75
1
 94
63
  0
MLINESTYLE
  5
22
102
{ACAD_REACTORS
330
10
102
}
330
10
100
AcDbMlineStyle
  2
Standard
 70
0
  3

 62
256
 51
90.0
 52
90.0
 71
2
 49
0.5
 62
256
  6
BYLAYER
 49
-0.5
 62
256
  6
BYLAYER
  0
MLEADERSTYLE
  5
2C
102
{ACAD_REACTORS
330
F
102
}
330
F
100
AcDbMLeaderStyle
179
2
170
2
171
1
172
0
 90
2
 40
0.0
 41
0.0
173
1
 91
-1056964608
 92
-2
290
1
 42
2.0
291
1
 43
8.0
  3
Standard
 44
4.0
300

342
29
174
1
175
1
176
0
178
1
 93
-1056964608
 45
4.0
292
0
297
0
 46
4.0
 94
-1056964608
 47
1.0
 49
1.0
140
1.0
294
1
141
0.0
177
0
142
1.0
295
0
296
0
143
3.75
271
0
272
9
273
9
  0
DICTIONARY
  5
2D
330
A
100
AcDbDictionary
280
1
281
1
  3
CREATED_BY_EZDXF
350
2E
  3
WRITTEN_BY_EZDXF
350
A1
  0
DICTIONARYVAR
  5
2E
330
2D
100
DictionaryVariables
280
0
  1
1.4.3 @ 2026-05-09T01:29:28.876113+00:00
  0
DICTIONARYVAR
  5
A1
330
2D
100
DictionaryVariables
280
0
  1
1.4.3 @ 2026-05-09T01:37:33.831502+00:00
  0
ENDSEC
  0
EOF
